<?xml version="1.0" encoding="UTF-8" standalone="no"?>
<svg
   xmlns:dc="http://purl.org/dc/elements/1.1/"
   xmlns:cc="http://creativecommons.org/ns#"
   xmlns:rdf="http://www.w3.org/1999/02/22-rdf-syntax-ns#"
   xmlns:svg="http://www.w3.org/2000/svg"
   xmlns="http://www.w3.org/2000/svg"
   xmlns:sodipodi="http://sodipodi.sourceforge.net/DTD/sodipodi-0.dtd"
   xmlns:inkscape="http://www.inkscape.org/namespaces/inkscape"
   inkscape:version="1.0 (4035a4fb49, 2020-05-01)"
   sodipodi:docname="gold-coin.svg"
   id="svg2315"
   version="1.1"
   height="87.822395"
   width="87.877983">
  <metadata
     id="metadata2321">
    <rdf:RDF>
      <cc:Work
         rdf:about="">
        <dc:format>image/svg+xml</dc:format>
        <dc:type
           rdf:resource="http://purl.org/dc/dcmitype/StillImage" />
        <dc:title></dc:title>
      </cc:Work>
    </rdf:RDF>
  </metadata>
  <defs
     id="defs2319" />
  <sodipodi:namedview
     fit-margin-bottom="0"
     fit-margin-right="0"
     fit-margin-left="0"
     fit-margin-top="0"
     inkscape:current-layer="svg2315"
     inkscape:window-maximized="1"
     inkscape:window-y="-8"
     inkscape:window-x="-8"
     inkscape:cy="-171.96191"
     inkscape:cx="-169.25438"
     inkscape:zoom="0.52539063"
     showgrid="false"
     id="namedview2317"
     inkscape:window-height="705"
     inkscape:window-width="1366"
     inkscape:pageshadow="2"
     inkscape:pageopacity="0"
     guidetolerance="10"
     gridtolerance="10"
     objecttolerance="10"
     borderopacity="1"
     bordercolor="#666666"
     pagecolor="#ffffff" />
  <path
     id="path2285"
     d="m 0.03235865,0 v 41.338275 h 0.171529 c 5.18e-4,-4.91428 1.53382995,-9.93182 3.45637595,-14.40836 C 15.874041,-1.509769 56.799244,-7.889878 77.096854,15.437532 c 2.8568,3.283223 5.33881,6.964383 7.05649,10.977803 1.94445,4.54326 3.52937,9.59065 3.52988,14.57989 h 0.17153 V 0 Z"
     style="fill:#ffffff;stroke:none;stroke-width:0.171528" />
  <path
     id="path2287"
     d="m 40.684514,1.200698 v 0.171529 c 18.40669,0 35.5077,10.381346 42.01531,28.130608 6.72201,18.3343 -0.42848,39.24838 -16.62914,50.02909 -3.95561,2.6321 -8.94776,5.24568 -13.72225,5.88907 0.88903,0.34701 2.18407,-0.14476 3.08751,-0.36535 2.764,-0.67462 5.48889,-1.64084 8.06182,-2.85611 11.32908,-5.35116 19.57067,-15.46155 22.91203,-27.48207 5.43247,-19.54391 -4.64275,-41.223961 -23.08356,-49.690197 -7.45375,-3.422083 -14.62295,-3.827445 -22.64172,-3.82657 z"
     style="fill:#bf9101;stroke:none;stroke-width:0.171528" />
  <path
     id="path2289"
     d="m 78.935294,66.038325 h -0.17153 c -2.7755,4.98529 -7.13969,9.43714 -11.83544,12.63407 -7.56645,5.15134 -16.68557,8.17452 -25.90075,7.77108 -25.60988,-1.12144 -44.9462644,-25.69799 -39.9317694,-50.76563 1.061545,-5.30673 3.201034,-10.4193 6.197903,-14.92294 3.6898104,-5.544868 8.5526694,-10.198752 14.3511864,-13.502539 6.72854,-3.83369 14.23066,-5.721006 21.9556,-5.70861 6.44054,0.01035 13.22808,1.976586 18.8681,5.027268 2.48424,1.343697 4.65047,3.09476 7.03265,4.578304 C 68.627654,9.429093 65.819564,8.117503 64.183874,7.178505 58.607494,3.977223 52.420644,1.999042 46.001894,1.528533 22.390364,-0.202264 1.0852156,18.134298 0.03910565,42.024395 -1.0479044,66.848455 20.681944,88.912975 45.830364,86.479325 c 10.23131,-0.99006 19.75181,-5.02045 27.10144,-12.37918 2.03673,-2.0393 5.32321,-5.16694 6.00349,-8.06182 z"
     style="fill:#d9a509;stroke:none;stroke-width:0.171528" />
  <path
     id="path2291"
     d="m 40.169934,1.61655 c -10.03525,1.317627 -19.01458,4.381155 -26.586857,11.434938 -3.6996734,3.446326 -6.7088924,7.646297 -8.9618104,12.163147 -11.905421,23.86917 1.981614,53.50837 27.8298974,59.97052 5.17141,1.2928 10.50679,1.56707 15.78059,0.87359 20.11682,-2.64514 35.98386,-19.98594 36.87186,-40.26074 0.89606,-20.4633 -13.8629,-39.342989 -33.95588,-43.362338 -3.50158,-0.700432 -7.40796,-1.287844 -10.9778,-0.819117 z"
     style="fill:#e9c34f;stroke:none;stroke-width:0.171528" />
  <path
     id="path2293"
     d="m 39.998404,7.44851 c -7.89698,1.036868 -15.17148,3.356372 -21.36828,8.626027 -3.326755,2.829238 -5.994826,6.376268 -8.11059,10.169268 -8.2424224,14.77646 -4.8418794,34.66068 8.11059,45.67553 7.74947,6.59011 18.33052,9.68671 28.40094,8.47847 5.53144,-0.66382 10.91845,-2.53913 15.60905,-5.55872 17.671,-11.37609 22.21032,-37.17734 8.91106,-53.7075 -4.6774,-5.813571 -11.06459,-10.029991 -18.17357,-12.216359 -4.15407,-1.277593 -9.03576,-2.036995 -13.3792,-1.466716 z"
     style="fill:#d7a301;stroke:none;stroke-width:0.171528" />
  <path
     id="path2295"
     d="m 41.199104,8.820732 c -7.11619,0.934814 -13.65998,2.911519 -19.453,7.36142 -3.4496,2.649753 -6.31296,6.037433 -8.604675,9.718593 -9.1585034,14.71111 -5.4815594,34.56772 7.890085,45.50298 7.75856,6.34483 18.02606,9.0198 27.88635,7.62185 4.88993,-0.69331 9.52616,-2.56949 13.72225,-5.13195 3.34943,-2.0453 6.29097,-4.78066 8.71175,-7.8553 12.04985,-15.30425 9.25565,-38.81835 -6.65341,-50.35633 -3.36555,-2.440881 -7.14809,-4.363142 -11.14933,-5.511938 -3.86264,-1.108979 -8.32837,-1.877613 -12.35002,-1.349325 z"
     style="fill:#e9c34f;stroke:none;stroke-width:0.171528" />
  <path
     id="path2297"
     d="m 78.935294,21.955605 c 1.45095,3.98597 3.72284,7.47571 4.82268,11.66391 2.11734,8.06319 1.61837,16.5046 -1.10807,24.35699 -0.97788,2.81615 -2.70929,5.30005 -3.71461,8.06182 2.06314,-1.76742 3.21632,-5.71309 4.05955,-8.23335 2.87961,-8.60779 3.10878,-18.0957 0.28525,-26.75838 -0.90189,-2.76744 -2.07566,-7.14724 -4.3448,-9.09099 z"
     style="fill:#d9a505;stroke:none;stroke-width:0.171528" />
  <path
     id="path2299"
     d="m 42.742854,26.243805 c 0.56656,2.41203 2.65714,4.97346 3.92628,7.10555 1.41906,2.38373 2.52404,5.17312 4.30707,7.30281 0.23963,-1.24015 -0.89657,-2.57327 -1.50927,-3.60209 -1.51751,-2.54788 -2.91409,-5.16728 -4.42611,-7.71877 -0.5784,-0.97582 -1.15765,-2.7309 -2.29797,-3.0875 z"
     style="fill:#bf8f01;stroke:none;stroke-width:0.171528" />
  <path
     id="path2301"
     d="m 42.571324,26.415335 -5.46488,9.7771 -2.25388,4.2882 -0.34306,-0.34305 c -1.04924,0.57599 -2.8803,-0.37994 -3.94514,-0.69058 -3.0165,-0.88011 -6.82476,-2.47772 -9.94863,-2.56846 v 0.51458 c 1.33054,0.75507 1.94735,3.29523 2.61528,4.63127 l 5.48891,10.9778 c 0.5693,1.1386 1.24306,3.54771 2.29675,4.28339 0.64049,0.44718 2.05732,0.17633 2.80672,0.17633 2.41117,0 4.79679,-0.17238 7.20418,-0.17153 3.30535,10e-4 6.63042,0.17153 9.94863,0.17153 1.06777,0 2.90363,0.3549 3.87825,-0.10343 1.21322,-0.57084 2.17893,-3.86229 2.76898,-5.04241 1.70997,-3.4201 3.30723,-6.89388 5.06094,-10.29168 0.84564,-1.63844 2.19985,-3.4954 2.52867,-5.31738 -0.60738,0.0796 -1.62369,0.18371 -1.71528,0.85764 -1.63501,-0.28988 -3.41633,0.54838 -4.97432,1.02488 -2.5465,0.77891 -5.15253,1.34427 -7.71877,2.06263 -0.53705,-1.82575 -1.96107,-3.52353 -2.89779,-5.1726 -1.62969,-2.86915 -3.05526,-6.68136 -5.33556,-9.06423 z"
     style="fill:#d7a301;stroke:none;stroke-width:0.171528" />
  <path
     id="path2303"
     d="m 20.101144,36.192435 c 0.64203,1.01888 2.75475,1.2338 3.87242,1.55747 3.41924,0.99006 7.01001,2.21237 10.53594,2.73073 -0.66364,-0.87565 -2.73141,-1.09966 -3.77362,-1.39624 -3.33828,-0.95027 -7.16558,-2.73347 -10.63474,-2.89196 z"
     style="fill:#bf8f01;stroke:none;stroke-width:0.171528" />
  <path
     id="path2305"
     d="m 65.384574,36.535485 c -2.41203,5.0666 -4.99422,10.07316 -7.50487,15.09448 -0.71785,1.43569 -1.66348,4.78701 -3.02525,5.65562 -1.35438,0.86399 -5.02165,0.17633 -6.6227,0.17633 h -17.49587 v 0.17153 c 6.01189,0 12.00646,0.17153 18.01046,0.17153 h 4.63126 c 0.56347,0 1.46056,0.16467 1.94907,-0.17633 1.37669,-0.96107 2.31786,-4.32749 3.06761,-5.82715 2.49608,-4.99198 5.36025,-9.94314 7.50487,-15.09448 z"
     style="fill:#bf9101;stroke:none;stroke-width:0.171528" />
  <path
     id="path2307"
     d="m 20.615734,37.393125 c 2.81752,6.7673 6.42561,13.73889 10.12015,20.06879 h 0.17153 c -0.53053,-1.84135 -1.67445,-3.60535 -2.53055,-5.31736 l -4.97432,-9.94864 c -0.6199,-1.23963 -1.42436,-4.33743 -2.78681,-4.80279 z"
     style="fill:#dfb123;stroke:none;stroke-width:0.171528" />
  <path
     id="path2309"
     d="m 87.683224,46.312595 c -5.1e-4,4.91428 -1.53381,9.93182 -3.45629,14.40836 -12.21383,28.4397 -53.13924,34.81969 -73.436609,11.49238 -2.8568164,-3.28322 -5.3389124,-6.96438 -7.0566154,-10.9778 -1.944406,-4.54326 -3.52927295,-9.59065 -3.52982195,-14.57989 h -0.171529 v 41.16675 H 87.854754 v -29.33131 -8.40487 z"
     style="fill:#ffffff;stroke:none;stroke-width:0.171528" />
  <path
     id="path2311"
     d="m 37.940074,57.290385 v 0.17153 h 4.80278 z"
     style="fill:#e3b735;stroke:none;stroke-width:0.171528" />
  <path
     id="path2313"
     d="m 30.735884,57.633445 v 0.17153 h 12.35003 l -3.94515,-0.17153 z"
     style="fill:#d9ad25;stroke:none;stroke-width:0.171528" />
</svg>
