<?xml version="1.0" encoding="UTF-8" standalone="no"?>
<svg
   xmlns:dc="http://purl.org/dc/elements/1.1/"
   xmlns:cc="http://creativecommons.org/ns#"
   xmlns:rdf="http://www.w3.org/1999/02/22-rdf-syntax-ns#"
   xmlns:svg="http://www.w3.org/2000/svg"
   xmlns="http://www.w3.org/2000/svg"
   xmlns:sodipodi="http://sodipodi.sourceforge.net/DTD/sodipodi-0.dtd"
   xmlns:inkscape="http://www.inkscape.org/namespaces/inkscape"
   height="96.065575"
   width="96.126381"
   inkscape:version="1.0 (4035a4fb49, 2020-05-01)"
   inkscape:output_extension="org.inkscape.output.svg.inkscape"
   version="1.0"
   sodipodi:version="0.32"
   viewBox="0 0 96.12638 96.065575"
   sodipodi:docname="silver-coin.svg"
   id="svg2">
  <defs
     id="defs4" />
  <sodipodi:namedview
     fit-margin-bottom="0"
     fit-margin-right="0"
     fit-margin-left="0"
     fit-margin-top="0"
     inkscape:window-maximized="1"
     inkscape:document-rotation="0"
     showborder="false"
     inkscape:window-height="705"
     inkscape:document-units="px"
     pagecolor="#ffffff"
     inkscape:pageshadow="2"
     inkscape:pageopacity="0.0"
     inkscape:window-width="1366"
     inkscape:window-y="-8"
     inkscape:guide-bbox="true"
     inkscape:window-x="-8"
     bordercolor="#666666"
     showguides="true"
     width="48px"
     showgrid="false"
     inkscape:cy="46.53895"
     inkscape:cx="27.275066"
     inkscape:current-layer="layer1"
     borderopacity="1.0"
     height="48px"
     inkscape:zoom="2.56"
     inkscape:showpageshadow="false"
     id="base" />
  <g
     transform="translate(115.21826,39.203324)"
     inkscape:groupmode="layer"
     inkscape:label="Layer 1"
     id="layer1">
    <path
       style="fill:#ffffff;stroke:none;stroke-width:0.187628"
       d="M -115.18287,-39.203324 V 6.0150459 h 0.18763 c 5.7e-4,-5.37555796 1.67781,-10.8640537 3.78081,-15.7607695 13.360175,-31.1090894 58.126701,-38.0880464 80.329484,-12.5710734 3.124955,3.591381 5.839923,7.618069 7.718829,12.008194 2.126962,4.9696989 3.860635,10.49085423 3.86121,15.9483868 h 0.187613 V -39.203324 Z"
       id="path1557" />
    <path
       style="fill:#4d4d4d;stroke:none;stroke-width:0.187628"
       d="m -70.715009,-37.889934 v 0.187634 c 20.134367,0 38.840514,11.355753 45.958935,30.7710042 7.352951,20.0551978 -0.4687,42.9323128 -18.189985,54.7249278 -4.326894,2.879142 -9.787613,5.738039 -15.010247,6.441831 0.972484,0.37957 2.389075,-0.158366 3.377302,-0.399644 3.02345,-0.737941 6.004109,-1.794857 8.81852,-3.124197 12.392461,-5.853437 21.407619,-16.912797 25.062621,-30.061591 5.942368,-21.37833981 -5.078538,-45.093333 -25.250238,-54.354221 -8.15338,-3.743296 -15.995485,-4.186698 -24.766908,-4.185744 z"
       id="path1559" />
    <path
       style="fill:#333333;stroke:none;stroke-width:0.187628"
       d="m -28.873955,33.033485 h -0.187612 c -3.03602,5.453225 -7.809837,10.322922 -12.946346,13.819939 -8.276645,5.634838 -18.251703,8.941784 -28.331843,8.500484 -28.013676,-1.226714 -49.165004,-28.110063 -43.679854,-55.530588 1.16119,-5.8048477 3.5015,-11.397289 6.77966,-16.323651 4.03614,-6.065316 9.355438,-11.156034 15.698221,-14.769918 7.360091,-4.193525 15.566377,-6.257986 24.016396,-6.244425 7.04506,0.01176 14.469689,2.162115 20.639095,5.499136 2.717409,1.469822 5.086972,3.38524 7.692748,5.008036 -0.955594,-1.881699 -4.02725,-3.316396 -5.816466,-4.343535 -6.09979,-3.501756 -12.867346,-5.66562 -19.888583,-6.180292 -25.827752,-1.893252 -49.132641,18.164414 -50.276941,44.2968861 -1.18904,27.1540909 22.580411,51.2896409 50.089309,48.6275639 11.191645,-1.082983 21.605757,-5.491682 29.645246,-13.541116 2.227892,-2.23071 5.822849,-5.651925 6.566975,-8.81852 z"
       id="path1561" />
    <path
       style="fill:#808080;stroke:none;stroke-width:0.187628"
       d="m -71.277901,-37.435047 c -10.977177,1.441302 -20.799313,4.79238 -29.082359,12.508245 -4.04692,3.769808 -7.33859,8.363998 -9.80298,13.304796 -13.02288,26.109576 2.16762,58.530777 30.442079,65.599476 5.656796,1.41415 11.492973,1.714171 17.261779,0.955594 22.005025,-2.893411 39.361374,-21.861867 40.332724,-44.039693 0.980173,-22.384033 -15.164094,-43.035802 -37.143039,-47.432414 -3.830246,-0.766187 -8.103281,-1.408732 -12.008204,-0.896004 z"
       id="path1563" />
    <path
       style="fill:#666666;stroke:none;stroke-width:0.187628"
       d="m -71.465521,-31.055689 c -8.63821,1.134192 -16.595526,3.671411 -23.373956,9.435689 -3.639012,3.094787 -6.557513,6.974753 -8.871873,11.123765 -9.01607,16.1634061 -5.29635,37.914018 8.871873,49.96274 8.476845,7.208673 20.051061,10.595923 31.066705,9.274271 6.050632,-0.726127 11.943277,-2.777469 17.074159,-6.080472 19.329635,-12.443866 24.295011,-40.6668806 9.74746,-58.748601 -5.116433,-6.359243 -12.103131,-10.971419 -19.879382,-13.363001 -4.543972,-1.397519 -9.883867,-2.228203 -14.634986,-1.604391 z"
       id="path1565" />
    <path
       style="fill:#b3b3b3;stroke:none;stroke-width:0.187628"
       d="m -70.15213,-29.554669 c -7.784122,1.022559 -14.942135,3.184803 -21.278898,8.052385 -3.773386,2.89845 -6.905505,6.604112 -9.412322,10.6308 -10.01815,16.091926 -5.99607,37.812304 8.630667,49.773975 8.48679,6.940358 19.718013,9.866428 30.503825,8.337252 5.348889,-0.758397 10.4203,-2.810665 15.010245,-5.613642 3.663815,-2.237276 6.881448,-5.229384 9.52944,-8.592616 13.180865,-16.740734 10.124405,-42.4619311 -7.277908,-55.082881 -3.681448,-2.669987 -7.819027,-4.772667 -12.195822,-6.029288 -4.225207,-1.213075 -9.110097,-2.053862 -13.509227,-1.475985 z"
       id="path1567" />
    <path
       style="fill:#4d4d4d;stroke:none;stroke-width:0.187628"
       d="m -68.463478,-10.496235 c 0.61974,2.638425 2.906555,5.4402763 4.294807,7.7724931 1.552256,2.60747249 2.760943,5.6586732 4.711345,7.9882657 0.262113,-1.3565465 -0.980736,-2.8147893 -1.650941,-3.9401836 -1.659947,-2.7870253 -3.18761,-5.6523056 -4.841553,-8.4432703 -0.632689,-1.067412 -1.266306,-2.9872269 -2.513658,-3.3773049 z"
       id="path1571" />
    <path
       style="fill:#999999;stroke:none;stroke-width:0.187628"
       d="M -68.65111,-10.308603 -74.628929,0.38619902 -77.094367,5.0769048 -77.46963,4.7016426 c -1.147714,0.6300537 -3.15064,-0.4155961 -4.315443,-0.7553915 -3.299623,-0.9627213 -7.465344,-2.7102837 -10.882421,-2.8095409 v 0.562879 c 1.455425,0.825946 2.130133,3.6045238 2.860764,5.0659679 l 6.004096,12.0081919 c 0.622743,1.245473 1.359743,3.880712 2.51234,4.685446 0.700608,0.489152 2.25041,0.192883 3.070155,0.192883 2.637495,0 5.247019,-0.188571 7.880379,-0.187634 3.615593,0.0013 7.252765,0.187634 10.882434,0.187634 1.167986,0 3.176161,0.388198 4.242264,-0.113177 1.327097,-0.624427 2.383451,-4.224815 3.028881,-5.5157 1.870473,-3.741116 3.617656,-7.540962 5.535971,-11.2576809 0.925009,-1.7922324 2.406334,-3.823485 2.766008,-5.81647907 -0.664382,0.0870662 -1.776082,0.20096207 -1.876282,0.93814117 -1.788459,-0.3170946 -3.736979,0.5998484 -5.441202,1.1210868 -2.785538,0.8520136 -5.636171,1.4704359 -8.443273,2.2562178 -0.587459,-1.9971056 -2.145144,-3.8542521 -3.169792,-5.65811355 -1.78265,-3.13845195 -3.342018,-7.30847895 -5.836359,-9.91501325 z"
       id="path1573" />
    <path
       style="fill:#333333;stroke:none;stroke-width:0.187628"
       d="m -93.230386,0.38619902 c 0.702292,1.11450568 3.013306,1.34961258 4.235897,1.70366348 3.740176,1.0829829 7.667985,2.4200255 11.524859,2.9870423 -0.725931,-0.9578519 -2.987787,-1.2028916 -4.127813,-1.5272969 -3.651622,-1.0394628 -7.838163,-2.9900453 -11.632943,-3.16340888 z"
       id="path1575" />
    <path
       style="fill:#666666;stroke:none;stroke-width:0.187628"
       d="m -43.69657,0.76144808 c -2.638425,5.54215962 -5.462977,11.01865792 -8.209287,16.51128092 -0.78522,1.570438 -1.819618,5.236315 -3.309205,6.186466 -1.481505,0.945084 -5.492999,0.192883 -7.24432,0.192883 h -19.138061 v 0.187613 c 6.576178,0 13.133403,0.187634 19.700953,0.187634 h 5.065955 c 0.61636,0 1.597655,0.180121 2.132014,-0.192883 1.505903,-1.051275 2.535418,-4.733664 3.355543,-6.374096 2.730371,-5.460549 5.863379,-10.8764279 8.2093,-16.51128102 z"
       id="path1577" />
    <path
       style="fill:#666666;stroke:none;stroke-width:0.187628"
       d="m -92.667494,1.6995892 c 3.081968,7.40249 7.028731,15.0284558 11.070051,21.9524978 h 0.187634 c -0.580333,-2.014195 -1.831628,-3.94376 -2.768085,-5.816479 L -89.619096,6.953174 c -0.67809,-1.3559825 -1.558066,-4.7445504 -3.048398,-5.2535848 z"
       id="path1579" />
    <path
       style="fill:#ffffff;stroke:none;stroke-width:0.187628"
       d="m -19.304911,11.45625 c -5.75e-4,5.375545 -1.677779,10.86404 -3.780708,15.760769 -13.360248,31.109103 -58.126993,38.087931 -80.329521,12.571073 -3.12496,-3.591381 -5.84004,-7.618069 -7.71896,-12.008192 -2.12692,-4.969711 -3.86054,-10.490856 -3.86114,-15.948388 h -0.18763 v 45.03074 h 96.065576 V 24.777845 15.584076 Z"
       id="path1581" />
  </g>
  <metadata
     id="metadata922">
    <rdf:RDF>
      <cc:Work>
        <dc:format>image/svg+xml</dc:format>
        <dc:type
           rdf:resource="http://purl.org/dc/dcmitype/StillImage" />
        <cc:license
           rdf:resource="http://creativecommons.org/publicdomain/zero/1.0/" />
        <dc:publisher>
          <cc:Agent
             rdf:about="http://openclipart.org/">
            <dc:title>Openclipart</dc:title>
          </cc:Agent>
        </dc:publisher>
        <dc:title></dc:title>
        <dc:date>2008-03-19T23:36:12</dc:date>
        <dc:description>A closed cardboard box.</dc:description>
        <dc:source>https://openclipart.org/detail/15872/closed-box-by-mcol</dc:source>
        <dc:creator>
          <cc:Agent>
            <dc:title>mcol</dc:title>
          </cc:Agent>
        </dc:creator>
        <dc:subject>
          <rdf:Bag>
            <rdf:li>box</rdf:li>
            <rdf:li>cardboard</rdf:li>
            <rdf:li>cartoon</rdf:li>
            <rdf:li>container</rdf:li>
          </rdf:Bag>
        </dc:subject>
      </cc:Work>
      <cc:License
         rdf:about="http://creativecommons.org/publicdomain/zero/1.0/">
        <cc:permits
           rdf:resource="http://creativecommons.org/ns#Reproduction" />
        <cc:permits
           rdf:resource="http://creativecommons.org/ns#Distribution" />
        <cc:permits
           rdf:resource="http://creativecommons.org/ns#DerivativeWorks" />
      </cc:License>
    </rdf:RDF>
  </metadata>
</svg>
